<svg xmlns="http://www.w3.org/2000/svg" viewBox="0 0 104.86 121.91"><defs><style>.cls-1{fill:#d71a18;}.cls-2{fill:none;stroke:#fff;stroke-miterlimit:10;}.cls-3{fill:#fff;}</style></defs><g id="圖層_2" data-name="圖層 2"><g id="logo進化史"><path class="cls-1" d="M104.86,69.48A52.43,52.43,0,0,1,0,69.48C0,61,1.54,7.68,5.14.58c2.94-5.81,7.42,34.25,12.21,29.94a52.43,52.43,0,0,1,87.51,39Z"/><path class="cls-2" d="M61.29,94.52c11.56-5.27,17.45-7.12,26.1-8.79A3.69,3.69,0,0,0,89.68,80c-7.52-10.53-8.5-15-10.44-20.81-5-15-20.9-24-36-19.36a28.82,28.82,0,1,0,18,54.72Z"/><path class="cls-3" d="M61.74,71.7a3.14,3.14,0,0,1,4.69-.42c.44,1.82-2.07,4-4.37,5.43a18.59,18.59,0,0,1-8.7,2.37q-6.63.36-10.71-3a12.47,12.47,0,0,1-4.41-9.43,12.56,12.56,0,0,1,3.39-9.85,16,16,0,0,1,10.43-5.2A12.3,12.3,0,0,1,65.45,65.25c-.19,2.62-17.11,2.53-21,2.48a.69.69,0,0,0-.69.81,8.1,8.1,0,0,0,2.89,5,9.42,9.42,0,0,0,6.65,1.88,13.42,13.42,0,0,0,5.11-1.17A9.82,9.82,0,0,0,61.74,71.7ZM45.89,58.62a9.27,9.27,0,0,0-2.31,4.21,1.11,1.11,0,0,0,1.14,1.33l15.53-.85a.73.73,0,0,0,.69-.82A7,7,0,0,0,58.31,58a8.83,8.83,0,0,0-6.06-2.38A8,8,0,0,0,45.89,58.62Z"/></g></g></svg>